<svg xmlns="http://www.w3.org/2000/svg" width="269.023" height="41.563" viewBox="0 0 269.023 41.563">
    <defs>
        <clipPath id="x675nminda">
            <path data-name="사각형 42" style="fill:#fff" d="M0 0h269.023v41.563H0z"/>
        </clipPath>
    </defs>
    <g data-name="그룹 57">
        <g data-name="그룹 56" style="clip-path:url(#x675nminda)">
            <path data-name="패스 152" d="M22.07 25.209c-.595-5.4 5.07-9.739 12.648-9.68s14.208 4.485 14.8 9.884-5.064 9.735-12.646 9.676-14.21-4.482-14.8-9.88m28.858 1.674c-.685-6.7-8.312-12.186-17.037-12.259s-15.246 5.3-14.562 12 8.314 12.19 17.04 12.264 15.246-5.3 14.558-12.006" transform="translate(-5.146 -3.903)" style="fill:#fff"/>
            <path data-name="패스 153" d="M37.3 41c-4.3 4.5-11.2 4.867-15.408.835s-4.14-10.938.161-15.429 11.2-4.861 15.406-.832S41.6 36.517 37.3 41M21.382 26.268c-5 5.218-5.075 13.246-.185 17.932s12.916 4.251 17.909-.968 5.081-13.246.183-17.931-12.912-4.252-17.908.967" transform="translate(-4.692 -5.885)" style="fill:#fff"/>
            <path data-name="패스 154" d="M17.147 3.578c8.938-3.348 17.777.038 19.74 7.565S33.2 27.495 24.262 30.842 6.484 30.807 4.52 23.275 8.21 6.928 17.147 3.578m-8.3 2.877C-.427 13.8-2.788 24.438 3.572 30.214s19.034 4.514 28.309-2.828S43.518 9.408 37.154 3.627 18.118-.889 8.845 6.454" style="fill:#fff"/>
            <path data-name="패스 155" d="M86.046 17.061v16.582h-2.6V24.9h-9.827v8.745h-2.6V17.061h2.6v5.564h9.828v-5.564z" transform="translate(-18.953 -4.553)" style="fill:#fff"/>
            <path data-name="패스 156" d="M98.576 35.141a3.988 3.988 0 0 1-2.88-1.018 3.434 3.434 0 0 1-1.083-2.623v-.888a3.459 3.459 0 0 1 1.087-2.636 3.935 3.935 0 0 1 2.88-1.04h6.775v-.065q0-1.992-2.186-1.992h-7.538v-2.207h7.49a4.945 4.945 0 0 1 3.573 1.191 4.291 4.291 0 0 1 1.255 3.334v4.4a3.311 3.311 0 0 1-1.147 2.663 4.37 4.37 0 0 1-2.922.887zm4.74-6H99.2q-1.993 0-1.991 1.688v.411q0 1.666 1.991 1.667h4.113q2.034 0 2.034-1.667v-.411q0-1.688-2.034-1.688" transform="translate(-25.249 -6.051)" style="fill:#fff"/>
            <path data-name="패스 157" d="M121.284 22.672h2.554a5.1 5.1 0 0 1 3.81 1.407A5.346 5.346 0 0 1 129.034 28v7.14h-2.6v-7.013a3.488 3.488 0 0 0-.606-2.273 2.658 2.658 0 0 0-2.186-.931h-2.208a2.672 2.672 0 0 0-2.166.931 3.684 3.684 0 0 0-.562 2.273v7.013h-2.6V28a5.343 5.343 0 0 1 1.386-3.918 5.073 5.073 0 0 1 3.789-1.407" transform="translate(-30.986 -6.051)" style="fill:#fff"/>
            <path data-name="패스 158" d="M146.538 33.474a4.3 4.3 0 0 1-3.438 1.666h-1.6a4.49 4.49 0 0 1-3.442-1.364 5.044 5.044 0 0 1-1.213-3.615v-7.49h2.576v7.511a2.858 2.858 0 0 0 .579 1.993 2.3 2.3 0 0 0 1.754.714h1.125a2.32 2.32 0 0 0 1.775-.714 2.791 2.791 0 0 0 .606-1.992v-7.511h2.554v7.511a2.854 2.854 0 0 0 .585 1.992 2.291 2.291 0 0 0 1.753.714h1.125a2.321 2.321 0 0 0 1.776-.714 2.788 2.788 0 0 0 .606-1.992v-7.511h2.576v7.49a4.939 4.939 0 0 1-1.256 3.615 4.517 4.517 0 0 1-3.464 1.364h-1.581a4.262 4.262 0 0 1-3.4-1.666" transform="translate(-36.518 -6.051)" style="fill:#fff"/>
            <path data-name="패스 159" d="M171.751 23.41a2.671 2.671 0 0 0-2.165.931 3.679 3.679 0 0 0-.563 2.273v7.013h-2.6V17h2.6v4.914a4.506 4.506 0 0 1 2.576-.757h2.555a5.1 5.1 0 0 1 3.809 1.407 5.347 5.347 0 0 1 1.386 3.918v7.144h-2.6v-7.012a3.483 3.483 0 0 0-.606-2.273 2.657 2.657 0 0 0-2.186-.931z" transform="translate(-44.413 -4.538)" style="fill:#fff"/>
            <path data-name="패스 160" d="M190.941 35.141a3.988 3.988 0 0 1-2.88-1.018 3.434 3.434 0 0 1-1.083-2.619v-.888a3.459 3.459 0 0 1 1.083-2.641 3.935 3.935 0 0 1 2.88-1.04h6.775v-.065q0-1.992-2.186-1.992H188v-2.206h7.49a4.945 4.945 0 0 1 3.573 1.191 4.291 4.291 0 0 1 1.255 3.334v4.4a3.311 3.311 0 0 1-1.147 2.663 4.37 4.37 0 0 1-2.922.887zm4.74-6h-4.113q-1.993 0-1.991 1.688v.411q0 1.666 1.991 1.667h4.113q2.034 0 2.034-1.667v-.411q0-1.688-2.034-1.688" transform="translate(-49.898 -6.051)" style="fill:#fff"/>
            <path data-name="패스 161" d="m223.7 27.213 8.854 6.43h-3.961l-8.811-6.386v6.386h-2.6V17.06h9.828a5.355 5.355 0 0 1 3.659 1.083 3.718 3.718 0 0 1 1.277 2.923v2.186a3.692 3.692 0 0 1-1.277 2.9 5.391 5.391 0 0 1-3.637 1.061zm3.183-2.229q2.468 0 2.468-1.84v-1.97q0-1.861-2.468-1.861h-7.1v5.672z" transform="translate(-57.959 -4.553)" style="fill:#fff"/>
            <path data-name="패스 162" d="M249.095 35.14h-3.832a4.611 4.611 0 0 1-4.957-5.065v-2.317a4.614 4.614 0 0 1 4.957-5.086h3.832a4.616 4.616 0 0 1 4.978 5.086v2.317a4.613 4.613 0 0 1-4.978 5.065m-.2-2.251a2.4 2.4 0 0 0 2.034-.844 3.441 3.441 0 0 0 .541-2.1V27.91a3.486 3.486 0 0 0-.541-2.122 2.379 2.379 0 0 0-2.034-.866h-3.465a2.353 2.353 0 0 0-2.012.866 3.6 3.6 0 0 0-.52 2.122v2.035a3.551 3.551 0 0 0 .52 2.1 2.378 2.378 0 0 0 2.012.844z" transform="translate(-64.129 -6.051)" style="fill:#fff"/>
            <path data-name="패스 163" d="M262.156 28.563V17h2.6v4.157h5.78a5.031 5.031 0 0 1 3.615 1.364 4.972 4.972 0 0 1 1.342 3.745v2.3a4.64 4.64 0 0 1-4.979 5.064h-3.4a4.61 4.61 0 0 1-4.957-5.064m2.6-.13a3.551 3.551 0 0 0 .52 2.1 2.377 2.377 0 0 0 2.012.844h3.053a2.44 2.44 0 0 0 2.034-.844 3.551 3.551 0 0 0 .52-2.1V26.4a3.6 3.6 0 0 0-.52-2.122 2.414 2.414 0 0 0-2.034-.866h-5.586z" transform="translate(-69.961 -4.538)" style="fill:#fff"/>
            <path data-name="패스 164" d="M292.2 35.14h-3.832a4.611 4.611 0 0 1-4.957-5.065v-2.317a4.614 4.614 0 0 1 4.957-5.086h3.832a4.616 4.616 0 0 1 4.978 5.086v2.317a4.613 4.613 0 0 1-4.978 5.065m-.2-2.251a2.4 2.4 0 0 0 2.034-.844 3.441 3.441 0 0 0 .541-2.1V27.91a3.486 3.486 0 0 0-.541-2.122 2.379 2.379 0 0 0-2.034-.866h-3.465a2.353 2.353 0 0 0-2.012.866 3.6 3.6 0 0 0-.52 2.122v2.035a3.551 3.551 0 0 0 .52 2.1 2.377 2.377 0 0 0 2.012.844z" transform="translate(-75.634 -6.051)" style="fill:#fff"/>
            <path data-name="패스 165" d="M310.955 21.647h3.9v2.186h-3.9v10.283h-2.619V23.834h-3.9v-2.187h3.9v-2.814h2.619z" transform="translate(-81.244 -5.026)" style="fill:#fff"/>
            <path data-name="패스 166" d="M324.167 18.664a1.432 1.432 0 0 1-.509 1.147 1.825 1.825 0 0 1-1.224.433 1.712 1.712 0 0 1-1.18-.433 1.458 1.458 0 0 1-.487-1.147 1.494 1.494 0 0 1 .487-1.158 1.688 1.688 0 0 1 1.18-.444 1.8 1.8 0 0 1 1.224.444 1.466 1.466 0 0 1 .509 1.158m-3.031 2.511h2.641v12.468h-2.641z" transform="translate(-85.602 -4.553)" style="fill:#fff"/>
            <path data-name="패스 167" d="M341.605 35.14h-8.292a4.611 4.611 0 0 1-4.957-5.065v-2.3a5.021 5.021 0 0 1 1.32-3.744 5.056 5.056 0 0 1 3.637-1.364h8.292v2.251h-8.075a2.441 2.441 0 0 0-2.057.866 3.714 3.714 0 0 0-.5 2.122v2.035a3.667 3.667 0 0 0 .5 2.1 2.468 2.468 0 0 0 2.057.844h8.075z" transform="translate(-87.627 -6.051)" style="fill:#fff"/>
            <path data-name="패스 168" d="M357.953 27.8a5.665 5.665 0 0 1 3.073.65 2.876 2.876 0 0 1 1.234 2.576v.931a2.853 2.853 0 0 1-1.234 2.554 5.873 5.873 0 0 1-3.1.628h-8.27v-2.25h8.27q1.71 0 1.71-1.169v-.5q0-1.19-1.71-1.191h-4.287a5.778 5.778 0 0 1-3.052-.627 2.872 2.872 0 0 1-1.213-2.555V25.9a2.859 2.859 0 0 1 1.213-2.575 5.609 5.609 0 0 1 3.052-.65h7.924v2.251h-7.88q-1.688 0-1.688 1.191v.52q0 1.169 1.668 1.169z" transform="translate(-93.238 -6.05)" style="fill:#fff"/>
        </g>
    </g>
</svg>
