<svg xmlns="http://www.w3.org/2000/svg" width="257.242" height="39.743" viewBox="0 0 257.242 39.743">
    <defs>
        <clipPath id="q1i4pz56sa">
            <path data-name="사각형 369" style="fill:none" d="M0 0h257.242v39.743H0z"/>
        </clipPath>
    </defs>
    <g data-name="그룹 438">
        <g data-name="그룹 593">
            <g data-name="그룹 592" transform="translate(0 .001)" style="clip-path:url(#q1i4pz56sa)">
                <path data-name="패스 944" d="M21.947 24.745c-.569-5.167 4.848-9.312 12.094-9.256s13.587 4.29 14.159 9.452-4.847 9.309-12.1 9.252-13.588-4.285-14.156-9.448m27.6 1.6c-.655-6.407-7.948-11.652-16.29-11.722S18.675 19.694 19.33 26.1s7.95 11.656 16.294 11.727 14.579-5.07 13.92-11.48" transform="translate(-5.765 -4.373)" style="fill:#fff"/>
                <path data-name="패스 945" d="M36.441 40.174c-4.108 4.3-10.706 4.653-14.733.8s-3.959-10.459.154-14.753 10.708-4.648 14.731-.8 3.959 10.459-.153 14.75M21.215 26.083c-4.777 4.99-4.853 12.666-.177 17.146s12.35 4.065 17.125-.925 4.858-12.666.175-17.146-12.346-4.066-17.123.925" transform="translate(-5.256 -6.593)" style="fill:#fff"/>
                <path data-name="패스 946" d="M16.4 3.421c8.547-3.2 17 .036 18.876 7.234S31.747 26.291 23.2 29.491s-17-.034-18.877-7.236S7.85 6.625 16.4 3.421M8.457 6.172c-8.866 7.02-11.123 17.2-5.042 22.719s18.2 4.316 27.069-2.7S41.612 9 35.527 3.468 17.324-.85 8.457 6.172" style="fill:#fff"/>
                <path data-name="패스 947" d="M85.388 17.061v15.856H82.9v-8.362h-9.4v8.362h-2.478V17.061h2.484v5.32h9.4v-5.32z" transform="translate(-21.234 -5.101)" style="fill:#fff"/>
                <path data-name="패스 948" d="M98.4 34.6a3.813 3.813 0 0 1-2.754-.973 3.284 3.284 0 0 1-1.035-2.5v-.849a3.308 3.308 0 0 1 1.035-2.525A3.763 3.763 0 0 1 98.4 26.75h6.478v-.062q0-1.9-2.09-1.9h-7.2v-2.116h7.162a4.728 4.728 0 0 1 3.416 1.138 4.1 4.1 0 0 1 1.2 3.188v4.2a3.166 3.166 0 0 1-1.1 2.546 4.179 4.179 0 0 1-2.794.848zm4.533-5.734H99q-1.905 0-1.9 1.614v.393q0 1.593 1.9 1.594h3.933q1.945 0 1.945-1.594v-.393q0-1.614-1.945-1.614" transform="translate(-28.287 -6.779)" style="fill:#fff"/>
                <path data-name="패스 949" d="M121.058 22.672h2.442a4.881 4.881 0 0 1 3.643 1.345 5.112 5.112 0 0 1 1.325 3.746v6.831h-2.484v-6.706a3.335 3.335 0 0 0-.58-2.174 2.541 2.541 0 0 0-2.09-.89H121.2a2.555 2.555 0 0 0-2.071.89 3.523 3.523 0 0 0-.538 2.174v6.706h-2.481v-6.83a5.109 5.109 0 0 1 1.325-3.746 4.851 4.851 0 0 1 3.623-1.345" transform="translate(-34.714 -6.779)" style="fill:#fff"/>
                <path data-name="패스 950" d="M146.113 33a4.115 4.115 0 0 1-3.291 1.593h-1.532A4.293 4.293 0 0 1 138 33.29a4.823 4.823 0 0 1-1.16-3.457v-7.161h2.46v7.182a2.733 2.733 0 0 0 .559 1.9 2.194 2.194 0 0 0 1.678.683h1.076a2.219 2.219 0 0 0 1.7-.683 2.669 2.669 0 0 0 .58-1.9v-7.182h2.442v7.182a2.729 2.729 0 0 0 .559 1.9 2.191 2.191 0 0 0 1.676.683h1.076a2.219 2.219 0 0 0 1.7-.683 2.666 2.666 0 0 0 .58-1.9v-7.182h2.463v7.162a4.723 4.723 0 0 1-1.2 3.457 4.32 4.32 0 0 1-3.312 1.3h-1.511A4.075 4.075 0 0 1 146.113 33" transform="translate(-40.911 -6.779)" style="fill:#fff"/>
                <path data-name="패스 951" d="M171.518 23.129a2.554 2.554 0 0 0-2.07.89 3.518 3.518 0 0 0-.538 2.174V32.9h-2.484V17h2.484v4.7a4.309 4.309 0 0 1 2.463-.724h2.443a4.879 4.879 0 0 1 3.643 1.345 5.113 5.113 0 0 1 1.325 3.746V32.9H176.3v-6.707a3.331 3.331 0 0 0-.58-2.174 2.541 2.541 0 0 0-2.09-.89z" transform="translate(-49.757 -5.083)" style="fill:#fff"/>
                <path data-name="패스 952" d="M190.767 34.6a3.813 3.813 0 0 1-2.754-.973 3.284 3.284 0 0 1-1.035-2.5v-.849a3.308 3.308 0 0 1 1.035-2.525 3.763 3.763 0 0 1 2.754-.994h6.478v-.062q0-1.9-2.09-1.9h-7.2v-2.125h7.162a4.728 4.728 0 0 1 3.416 1.138A4.1 4.1 0 0 1 199.73 27v4.2a3.166 3.166 0 0 1-1.1 2.546 4.179 4.179 0 0 1-2.794.848zm4.533-5.734h-3.933q-1.905 0-1.9 1.614v.393q0 1.593 1.9 1.594h3.933q1.945 0 1.945-1.594v-.393q0-1.614-1.945-1.614" transform="translate(-55.901 -6.779)" style="fill:#fff"/>
                <path data-name="패스 953" d="m223.415 26.769 8.466 6.148h-3.788l-8.425-6.107v6.107h-2.484V17.06h9.4a5.121 5.121 0 0 1 3.5 1.035 3.555 3.555 0 0 1 1.216 2.795v2.09a3.53 3.53 0 0 1-1.221 2.773 5.155 5.155 0 0 1-3.478 1.014zm3.043-2.132q2.36 0 2.36-1.76v-1.884q0-1.779-2.36-1.78h-6.789v5.423z" transform="translate(-64.932 -5.101)" style="fill:#fff"/>
                <path data-name="패스 954" d="M248.71 34.594h-3.664a4.409 4.409 0 0 1-4.74-4.843v-2.215a4.412 4.412 0 0 1 4.74-4.864h3.664a4.414 4.414 0 0 1 4.76 4.864v2.215a4.411 4.411 0 0 1-4.76 4.843m-.186-2.153a2.3 2.3 0 0 0 1.945-.807 3.291 3.291 0 0 0 .517-2.008v-1.945a3.333 3.333 0 0 0-.517-2.029 2.275 2.275 0 0 0-1.945-.828h-3.314a2.25 2.25 0 0 0-1.924.828 3.44 3.44 0 0 0-.5 2.029v1.946a3.4 3.4 0 0 0 .5 2.008 2.273 2.273 0 0 0 1.924.807z" transform="translate(-71.845 -6.779)" style="fill:#fff"/>
                <path data-name="패스 955" d="M262.156 28.057V17h2.484v3.975h5.527a4.811 4.811 0 0 1 3.457 1.3 4.754 4.754 0 0 1 1.284 3.581v2.195a4.437 4.437 0 0 1-4.761 4.843H266.9a4.408 4.408 0 0 1-4.74-4.843m2.484-.125a3.4 3.4 0 0 0 .5 2.008 2.272 2.272 0 0 0 1.924.807h2.92a2.333 2.333 0 0 0 1.945-.807 3.4 3.4 0 0 0 .5-2.008v-1.94a3.441 3.441 0 0 0-.5-2.029 2.308 2.308 0 0 0-1.945-.828h-5.348z" transform="translate(-78.377 -5.083)" style="fill:#fff"/>
                <path data-name="패스 956" d="M291.82 34.594h-3.664a4.409 4.409 0 0 1-4.74-4.843v-2.215a4.412 4.412 0 0 1 4.74-4.864h3.664a4.414 4.414 0 0 1 4.76 4.864v2.215a4.411 4.411 0 0 1-4.76 4.843m-.186-2.153a2.3 2.3 0 0 0 1.945-.807 3.291 3.291 0 0 0 .517-2.008v-1.945a3.333 3.333 0 0 0-.517-2.029 2.275 2.275 0 0 0-1.945-.828h-3.314a2.25 2.25 0 0 0-1.924.828 3.44 3.44 0 0 0-.5 2.029v1.946a3.4 3.4 0 0 0 .5 2.008 2.273 2.273 0 0 0 1.924.807z" transform="translate(-84.733 -6.779)" style="fill:#fff"/>
                <path data-name="패스 957" d="M310.669 21.524h3.731v2.09h-3.726v9.832h-2.5v-9.831h-3.727v-2.09h3.727v-2.692h2.5z" transform="translate(-91.019 -5.631)" style="fill:#fff"/>
                <path data-name="패스 958" d="M324.018 18.593a1.369 1.369 0 0 1-.487 1.1 1.745 1.745 0 0 1-1.17.414 1.637 1.637 0 0 1-1.128-.414 1.394 1.394 0 0 1-.465-1.1 1.428 1.428 0 0 1 .465-1.108 1.614 1.614 0 0 1 1.128-.425 1.719 1.719 0 0 1 1.17.425 1.4 1.4 0 0 1 .487 1.108m-2.9 2.4h2.525v11.924h-2.523z" transform="translate(-95.901 -5.101)" style="fill:#fff"/>
                <path data-name="패스 959" d="M341.025 34.594H333.1a4.409 4.409 0 0 1-4.74-4.843v-2.195a4.441 4.441 0 0 1 4.74-4.884h7.929v2.152H333.3a2.334 2.334 0 0 0-1.967.828 3.551 3.551 0 0 0-.476 2.029v1.946a3.506 3.506 0 0 0 .476 2.008 2.36 2.36 0 0 0 1.967.807h7.721z" transform="translate(-98.169 -6.779)" style="fill:#fff"/>
                <path data-name="패스 960" d="M357.578 27.577a5.417 5.417 0 0 1 2.939.621 2.75 2.75 0 0 1 1.18 2.463v.89a2.728 2.728 0 0 1-1.18 2.442 5.616 5.616 0 0 1-2.96.6h-7.908v-2.152h7.908q1.635 0 1.635-1.118v-.476q0-1.138-1.635-1.138h-4.1a5.525 5.525 0 0 1-2.918-.6 2.746 2.746 0 0 1-1.159-2.443v-.911a2.734 2.734 0 0 1 1.159-2.463 5.364 5.364 0 0 1 2.918-.621h7.577v2.152H353.5q-1.614 0-1.614 1.139v.5q0 1.118 1.595 1.117z" transform="translate(-104.455 -6.778)" style="fill:#fff"/>
            </g>
        </g>
    </g>
</svg>
