<svg data-name="그룹 598" xmlns="http://www.w3.org/2000/svg" width="19" height="19" viewBox="0 0 19 19">
    <defs>
        <clipPath id="cc28zta66a">
            <path data-name="사각형 376" style="fill:none;stroke:#fff" d="M0 0h19v19H0z"/>
        </clipPath>
    </defs>
    <g data-name="그룹 597" style="clip-path:url(#cc28zta66a)">
        <circle data-name="타원 52" cx="8.5" cy="8.5" r="8.5" transform="translate(1 1)" style="stroke-linecap:round;stroke-linejoin:round;fill:none;stroke:#fff"/>
        <path data-name="패스 982" d="M13 1.059a10.934 10.934 0 0 1 3.99 8.389A10.93 10.93 0 0 1 13 17.84" transform="translate(-2.617 .257)" style="stroke-linecap:round;stroke-linejoin:round;fill:none;stroke:#fff"/>
        <path data-name="패스 983" d="M9.99 17.839A10.929 10.929 0 0 1 6 9.45a10.928 10.928 0 0 1 3.994-8.392" transform="translate(-1.209 .258)" style="stroke-linecap:round;stroke-linejoin:round;fill:none;stroke:#fff"/>
        <path data-name="선 79" transform="translate(10 1)" style="stroke-linecap:round;stroke-linejoin:round;fill:none;stroke:#fff" d="M0 0v17"/>
        <path data-name="선 80" transform="translate(2 6)" style="stroke-linecap:round;stroke-linejoin:round;fill:none;stroke:#fff" d="M0 0h15"/>
        <path data-name="선 81" transform="translate(2 13)" style="stroke-linecap:round;stroke-linejoin:round;fill:none;stroke:#fff" d="M0 0h15"/>
    </g>
</svg>
