<svg xmlns="http://www.w3.org/2000/svg" width="33" height="29" viewBox="0 0 33 29">
    <defs>
        <clipPath id="14vm7jjp4a">
            <path data-name="사각형 100" transform="translate(1702 173)" style="fill:red;opacity:.363" d="M0 0h33v29H0z"/>
        </clipPath>
    </defs>
    <g data-name="마스크 그룹 24" transform="translate(-1702 -173)" style="clip-path:url(#14vm7jjp4a)">
        <g data-name="그룹 135">
            <path data-name="사각형 45" d="M0-.75h6a.75.75 0 0 1 .75.75v18a.75.75 0 0 1-.75.75H0A.75.75 0 0 1-.75 18V0A.75.75 0 0 1 0-.75zM5.25.75H.75v16.5h4.5z" transform="translate(1706 182)" style="fill:#fff"/>
            <path data-name="패스 172" d="M3.948 7.9A3.948 3.948 0 1 1 7.9 3.948 3.953 3.953 0 0 1 3.948 7.9zm0-6.4A2.448 2.448 0 1 0 6.4 3.948 2.451 2.451 0 0 0 3.948 1.5z" transform="translate(1704.756 172.953)" style="fill:#fff"/>
            <path data-name="패스 173" d="M16.75 15h5.862a.75.75 0 0 1 .75.75v.6A7.306 7.306 0 0 1 27.815 15c2.894 0 4.84.873 5.948 2.668 1.062 1.721 1.208 4.054 1.208 6.32V33.8a.75.75 0 0 1-.75.75H28.4a.75.75 0 0 1-.75-.75v-8.7a8.194 8.194 0 0 0-.33-2.939c-.21-.5-.593-1-1.832-1-1.257 0-1.628.47-1.825.929a7.945 7.945 0 0 0-.3 2.828V33.8a.75.75 0 0 1-.75.75H16.75a.75.75 0 0 1-.75-.75V15.75a.75.75 0 0 1 .75-.75zm5.112 1.5H17.5v16.554h4.362v-8.137a8.986 8.986 0 0 1 .42-3.42 3.14 3.14 0 0 1 3.2-1.838 3.16 3.16 0 0 1 3.218 1.917 9.225 9.225 0 0 1 .449 3.525v7.953h4.324v-9.066c0-4.967-.875-7.488-5.656-7.488-3.135 0-4.267 1.687-4.539 2.2a.75.75 0 0 1-1.414-.35z" transform="translate(1698.074 166.688)" style="fill:#fff"/>
        </g>
    </g>
</svg>
