<svg xmlns="http://www.w3.org/2000/svg" width="194.147" height="50" viewBox="0 0 194.147 50">
    <defs>
        <clipPath id="bx7odq2x9a">
            <path data-name="사각형 68" style="fill:none" d="M0 0h194.147v50H0z"/>
        </clipPath>
    </defs>
    <g data-name="그룹 95">
        <g data-name="그룹 94" style="clip-path:url(#bx7odq2x9a)">
            <path data-name="패스 184" d="M22.635 27.358c-.715-6.5 6.1-11.716 15.215-11.644s17.092 5.4 17.806 11.89-6.092 11.711-15.213 11.64-17.093-5.392-17.808-11.886m34.719 2.014c-.825-8.06-10-14.66-20.495-14.747S18.518 21 19.342 29.061s10 14.664 20.5 14.753 18.341-6.378 17.513-14.443" transform="translate(-2.276 -1.726)" style="fill:#fbb584"/>
            <path data-name="패스 185" d="M41.308 44.85c-5.168 5.408-13.469 5.854-18.535 1s-4.98-13.158.194-18.56 13.472-5.848 18.533-1 4.98 13.159-.192 18.557M22.153 27.123c-6.01 6.278-6.106 15.935-.222 21.571s15.537 5.114 21.544-1.164 6.112-15.93.225-21.57-15.533-5.115-21.542 1.163" transform="translate(-2.076 -2.603)" style="fill:#f89b6c"/>
            <path data-name="패스 186" d="M20.628 4.3c10.752-4.024 21.385.05 23.747 9.1s-4.434 19.675-15.188 23.7S7.8 37.06 5.438 28 9.876 8.334 20.628 4.3M10.64 7.765C-.514 16.6-3.354 29.4 4.3 36.347s22.9 5.431 34.055-3.4 14-21.626 6.343-28.581S21.8-1.069 10.64 7.765" style="fill:#f37321"/>
            <path data-name="패스 187" d="M74.948 19.668h-12.31v-1.967h12.31zm-6.155 8.65a5.872 5.872 0 0 1-3.8-1.179 3.437 3.437 0 0 1 0-5.629 6.708 6.708 0 0 1 7.6 0 3.436 3.436 0 0 1 0 5.629 5.868 5.868 0 0 1-3.8 1.179m.938 4.531h10.64v2.105h-11.3q-3.661 0-3.661-3.41v-2.2h2.746v1.877a1.416 1.416 0 0 0 1.579 1.625m-4.1-17.849h6.316v1.995h-6.316zm3.158 11.4a2.912 2.912 0 0 0 1.841-.594 1.814 1.814 0 0 0 .766-1.488 1.794 1.794 0 0 0-.766-1.465 3.147 3.147 0 0 0-3.684 0 1.794 1.794 0 0 0-.766 1.465 1.814 1.814 0 0 0 .766 1.488 2.911 2.911 0 0 0 1.842.594m11.487-6.018h2.836v2.151H80.28v6.932h-2.723v-14.12h2.723z"/>
            <path data-name="패스 188" d="M90.258 28.204a5.241 5.241 0 0 1-2.494-1.1 3.436 3.436 0 0 1 .045-5.6 6.712 6.712 0 0 1 7.6 0 3.435 3.435 0 0 1 .046 5.6 5.382 5.382 0 0 1-2.447 1.1v2.083h3.043q4.12 0 4.12-3.181V15.343h2.723v6.591h2.832v2.174h-2.837V35h-2.723v-3.683a5.368 5.368 0 0 1-3.662 1.1H84.973v-2.13h5.285zm7.46-8.535h-12.31v-1.968h12.311zm-9.268-4.668h6.316v1.992h-6.315zm3.158 11.4a2.911 2.911 0 0 0 1.841-.6 1.811 1.811 0 0 0 .766-1.488 1.793 1.793 0 0 0-.766-1.464 3.147 3.147 0 0 0-3.684 0 1.793 1.793 0 0 0-.766 1.464 1.811 1.811 0 0 0 .766 1.488 2.912 2.912 0 0 0 1.842.6"/>
            <path data-name="패스 189" d="M124.193 15.846a.911.911 0 0 1 1.03 1.03v5.789h-12.837v1.808q0 1.053 1.236 1.053h11.693v2.105h-6.316v3.272h8.65v2.176H107.58v-2.176h8.627v-3.272h-3.021q-3.524 0-3.524-3v-4.052h12.837v-2.628h-12.837v-2.105z"/>
            <path data-name="패스 190" d="M147.786 26.945h-6.179v3.84h8.65v2.174h-20.068v-2.174h8.627v-3.84h-3.089q-3.5 0-3.5-3.5v-7.644h2.723v3.478h10.113v-3.478h2.723zm-2.723-2.128v-3.432h-10.115v1.968a1.305 1.305 0 0 0 1.488 1.465z"/>
            <path data-name="패스 191" d="M167.993 25.458q-1.053 1.122-3.936 1.121h-6.613q-3.638 0-3.639-3.248v-7.827h10v2.083h-7.3v2.31h7.3v2.06h-7.3v1.052a1.314 1.314 0 0 0 1.487 1.489h5.607q4.392 0 4.393-2.884v-6.267h2.745v11.781h-2.745zm-12.152 2.769h13.364a1.355 1.355 0 0 1 1.533 1.533v5.378h-2.745v-4.805h-12.152z"/>
            <path data-name="패스 192" d="M194.148 32.963h-20.069v-2.22h20.069zm-8.65-16.27q0 4.3 2.38 6.5a7.983 7.983 0 0 0 4.965 2.22v2.105a11.092 11.092 0 0 1-6.705-2.448 8.06 8.06 0 0 1-2.013-2.357 8.4 8.4 0 0 1-2.037 2.357 11.09 11.09 0 0 1-6.7 2.448V25.41a7.99 7.99 0 0 0 4.966-2.22q2.379-2.2 2.379-6.5v-1.072h2.765z"/>
        </g>
    </g>
</svg>
