<svg xmlns="http://www.w3.org/2000/svg" width="94" height="88" viewBox="0 0 94 88">
    <defs>
        <clipPath id="wscrht9tqa">
            <path data-name="사각형 691" transform="translate(1083 1370)" style="fill:#fff;stroke:#707070" d="M0 0h94v88H0z"/>
        </clipPath>
        <clipPath id="h8d1p5l9pb">
            <path data-name="사각형 555" style="fill:none;stroke:#f79a4b;stroke-width:1.5px" d="M0 0h62.01v70.662H0z"/>
        </clipPath>
    </defs>
    <g data-name="마스크 그룹 62" transform="translate(-1083 -1370)" style="clip-path:url(#wscrht9tqa)">
        <g data-name="그룹 897">
            <g data-name="그룹 896" style="clip-path:url(#h8d1p5l9pb)" transform="translate(1101.398 1380)">
                <path data-name="패스 1431" d="M39.389 64.925a24.26 24.26 0 0 0-12.11 21.01" transform="translate(-21.06 -50.122)" style="stroke-linecap:round;stroke-linejoin:round;fill:none;stroke:#f79a4b;stroke-width:1.5px"/>
                <path data-name="패스 1432" d="M156.972 207.426a24.2 24.2 0 0 0 17.536-15.683" transform="translate(-121.182 -148.025)" style="stroke-linecap:round;stroke-linejoin:round;fill:none;stroke:#f79a4b;stroke-width:1.5px"/>
                <path data-name="패스 1433" d="M31.7 177.677a12.89 12.89 0 0 0-.226-2.361l3.24-2.626a16.306 16.306 0 0 0-3.609-6.251l-3.9 1.494a12.8 12.8 0 0 0-4.086-2.358l-.655-4.123a16.314 16.314 0 0 0-7.218 0l-.654 4.123a12.8 12.8 0 0 0-4.087 2.358l-3.9-1.494A16.329 16.329 0 0 0 3 172.69l3.24 2.626a12.437 12.437 0 0 0 0 4.722L3 182.664a16.33 16.33 0 0 0 3.609 6.251l3.9-1.494a12.8 12.8 0 0 0 4.087 2.358l.654 4.123a16.314 16.314 0 0 0 7.218 0l.655-4.123a12.818 12.818 0 0 0 4.087-2.358l3.9 1.494a16.307 16.307 0 0 0 3.609-6.251l-3.24-2.626a12.891 12.891 0 0 0 .221-2.361z" transform="translate(-2.316 -124.328)" style="stroke-linecap:round;stroke-linejoin:round;fill:none;stroke:#f79a4b;stroke-width:1.5px"/>
                <circle data-name="타원 80" cx="7.287" cy="7.287" r="7.287" transform="translate(9.253 46.062)" style="stroke-linecap:round;stroke-linejoin:round;fill:none;stroke:#f79a4b;stroke-width:1.5px"/>
                <path data-name="패스 1434" d="M132.461 23.564a15.9 15.9 0 0 0-.28-2.92l4.007-3.247a20.163 20.163 0 0 0-4.463-7.73l-4.819 1.848a15.829 15.829 0 0 0-5.053-2.915l-.81-5.1a20.172 20.172 0 0 0-8.927 0l-.809 5.1a15.825 15.825 0 0 0-5.054 2.915l-4.819-1.848a20.189 20.189 0 0 0-4.463 7.73l4.007 3.247a15.366 15.366 0 0 0 0 5.84l-4.007 3.247a20.189 20.189 0 0 0 4.463 7.73l4.819-1.848a15.838 15.838 0 0 0 5.054 2.916l.809 5.1a20.181 20.181 0 0 0 8.927 0l.81-5.1a15.857 15.857 0 0 0 5.054-2.916l4.818 1.848a20.163 20.163 0 0 0 4.463-7.73l-4.007-3.247a15.9 15.9 0 0 0 .28-2.92z" transform="translate(-74.862 -2.316)" style="stroke-linecap:round;stroke-linejoin:round;fill:none;stroke:#f79a4b;stroke-width:1.5px"/>
                <circle data-name="타원 81" cx="9.012" cy="9.012" r="9.012" transform="translate(32.707 12.237)" style="stroke-linecap:round;stroke-linejoin:round;fill:none;stroke:#f79a4b;stroke-width:1.5px"/>
            </g>
        </g>
    </g>
</svg>
