<svg xmlns="http://www.w3.org/2000/svg" width="94" height="88" viewBox="0 0 94 88">
    <defs>
        <clipPath id="k6fqftbn5a">
            <path data-name="사각형 692" transform="translate(1257 1370)" style="stroke:#707070;fill:#fff" d="M0 0h94v88H0z"/>
        </clipPath>
        <clipPath id="5qwfsepnlb">
            <path data-name="사각형 490" style="stroke:#f39747;stroke-width:1.5px;fill:#f7f7f7" d="M0 0h60.964v64.927H0z"/>
        </clipPath>
    </defs>
    <g data-name="마스크 그룹 61" transform="translate(-1257 -1370)" style="clip-path:url(#k6fqftbn5a)">
        <g data-name="그룹 843">
            <g data-name="그룹 791" style="clip-path:url(#5qwfsepnlb)" transform="translate(1271.379 1384.113)">
                <path data-name="패스 1222" d="M162.482 66.754h26.988a3.586 3.586 0 0 0 3.626-3.546V9.585a3.586 3.586 0 0 0-3.626-3.546h-37.576a3.586 3.586 0 0 0-3.626 3.546v38.586" transform="translate(-132.763 -5.407)" style="stroke:#f39747;stroke-width:1.5px;fill:#f7f7f7"/>
                <path data-name="패스 1223" d="M162.482 66.754h26.988a3.586 3.586 0 0 0 3.626-3.546V9.585a3.586 3.586 0 0 0-3.626-3.546h-37.576a3.586 3.586 0 0 0-3.626 3.546v38.586" transform="translate(-132.763 -5.407)" style="stroke-linecap:round;stroke-linejoin:round;stroke:#f39747;stroke-width:1.5px;fill:#f7f7f7"/>
                <path data-name="패스 1224" d="M404.064 93.551a5.788 5.788 0 1 0 5.788-5.788 5.788 5.788 0 0 0-5.788 5.788" transform="translate(-361.809 -78.585)" style="stroke:#f39747;stroke-width:1.5px;fill:#f7f7f7"/>
                <path data-name="패스 1225" d="M404.064 93.551a5.788 5.788 0 1 0 5.788-5.788 5.788 5.788 0 0 0-5.788 5.788z" transform="translate(-361.809 -78.585)" style="stroke-linecap:round;stroke-linejoin:round;stroke:#f39747;stroke-width:1.5px;fill:#f7f7f7"/>
                <path data-name="선 163" transform="translate(44.064 10.987)" style="fill:#d0fdff;stroke:#f39747;stroke-width:1.5px" d="m0 0 8.071 8.071"/>
                <path data-name="선 164" transform="translate(44.064 10.987)" style="fill:none;stroke-linecap:round;stroke-linejoin:round;stroke:#f39747;stroke-width:1.5px" d="m0 0 8.071 8.071"/>
                <path data-name="패스 1226" d="M404.064 243.514a5.788 5.788 0 1 0 5.788-5.788 5.788 5.788 0 0 0-5.788 5.788" transform="translate(-361.809 -212.866)" style="stroke:#f39747;stroke-width:1.5px;fill:#f7f7f7"/>
                <path data-name="패스 1227" d="M404.064 243.514a5.788 5.788 0 1 0 5.788-5.788 5.788 5.788 0 0 0-5.788 5.788z" transform="translate(-361.809 -212.866)" style="stroke-linecap:round;stroke-linejoin:round;stroke:#f39747;stroke-width:1.5px;fill:#f7f7f7"/>
                <path data-name="선 165" transform="translate(44.064 26.669)" style="stroke:#f39747;stroke-width:1.5px;fill:#fff" d="m0 0 8.071 8.071"/>
                <path data-name="선 166" transform="translate(44.064 26.669)" style="fill:none;stroke-linecap:round;stroke-linejoin:round;stroke:#f39747;stroke-width:1.5px" d="m0 0 8.071 8.071"/>
                <path data-name="패스 1228" d="M213.632 243.514a5.788 5.788 0 1 0 5.788-5.788 5.788 5.788 0 0 0-5.788 5.788" transform="translate(-191.292 -212.866)" style="stroke:#f39747;stroke-width:1.5px;fill:#f7f7f7"/>
                <path data-name="패스 1229" d="M213.632 243.514a5.788 5.788 0 1 0 5.788-5.788 5.788 5.788 0 0 0-5.788 5.788z" transform="translate(-191.292 -212.866)" style="stroke-linecap:round;stroke-linejoin:round;stroke:#f39747;stroke-width:1.5px;fill:#f7f7f7"/>
                <path data-name="선 167" transform="translate(24.149 26.669)" style="fill:#d0fdff;stroke:#f39747;stroke-width:1.5px" d="m0 0 8.071 8.071"/>
                <path data-name="선 168" transform="translate(24.149 26.669)" style="fill:none;stroke-linecap:round;stroke-linejoin:round;stroke:#f39747;stroke-width:1.5px" d="m0 0 8.071 8.071"/>
                <path data-name="패스 1230" d="M211.868 97.644a5.788 5.788 0 1 0 0-8.186 5.788 5.788 0 0 0 0 8.186z" transform="translate(-188.194 -78.585)" style="stroke-linecap:round;stroke-linejoin:round;stroke:#f39747;stroke-width:1.5px;fill:#f7f7f7"/>
                <path data-name="선 169" transform="translate(22.139 14.966)" style="fill:none;stroke-linecap:round;stroke-linejoin:round;stroke:#f39747;stroke-width:1.5px" d="M0 0h11.415"/>
                <path data-name="패스 1231" d="M211.948 392.044a5.789 5.789 0 1 1 7.07 7.06" transform="translate(-189.784 -347.171)" style="stroke-linecap:round;stroke-linejoin:round;stroke:#f39747;stroke-width:1.5px;fill:#f7f7f7"/>
                <path data-name="선 170" transform="translate(25.687 42.354)" style="fill:none;stroke-linecap:round;stroke-linejoin:round;stroke:#f39747;stroke-width:1.5px" d="M6.059 0 0 6.059"/>
                <path data-name="패스 1232" d="M413.945 397.6a5.788 5.788 0 1 1 0-8.186 5.788 5.788 0 0 1 0 8.186z" transform="translate(-361.809 -347.171)" style="stroke-linecap:round;stroke-linejoin:round;stroke:#f39747;stroke-width:1.5px;fill:#f7f7f7"/>
                <path data-name="선 171" transform="translate(42.256 46.333)" style="fill:none;stroke-linecap:round;stroke-linejoin:round;stroke:#f39747;stroke-width:1.5px" d="M11.414 0H0"/>
                <path data-name="선 172" transform="translate(37.82 5.236)" style="fill:none;stroke-linecap:round;stroke-linejoin:round;stroke:#f39747;stroke-width:1.5px" d="M0 0v51.489"/>
                <path data-name="패스 1233" d="M6.039 512.34v.615a5.274 5.274 0 0 0 5.276 5.276h7.909v-11.167h-7.909a5.275 5.275 0 0 0-5.276 5.276" transform="translate(-5.407 -454.038)" style="stroke:#f39747;stroke-width:1.5px;fill:#f7f7f7"/>
                <path data-name="패스 1234" d="M6.039 512.34v.615a5.274 5.274 0 0 0 5.276 5.276h7.909v-11.167h-7.909a5.275 5.275 0 0 0-5.276 5.276z" transform="translate(-5.407 -454.038)" style="stroke-linecap:round;stroke-linejoin:round;stroke:#f39747;stroke-width:1.5px;fill:#f7f7f7"/>
                <path data-name="패스 1235" d="M132.12 507.063v11.167h7.627a5.277 5.277 0 0 0 5.276-5.276v-.615a5.277 5.277 0 0 0-5.276-5.276z" transform="translate(-118.304 -454.037)" style="stroke:#f39747;stroke-width:1.5px;fill:#f7f7f7"/>
                <path data-name="패스 1236" d="M132.12 507.063v11.167h7.627a5.277 5.277 0 0 0 5.276-5.276v-.615a5.277 5.277 0 0 0-5.276-5.276z" transform="translate(-118.304 -454.037)" style="stroke-linecap:round;stroke-linejoin:round;stroke:#f39747;stroke-width:1.5px;fill:#f7f7f7"/>
                <path data-name="패스 1237" d="M82.836 412.747a5.547 5.547 0 0 0 1.638 3.948l.878.882 4.67 4.314 7.717-7.717-5.37-5.374a5.586 5.586 0 0 0-9.533 3.947" transform="translate(-74.173 -364.584)" style="stroke:#f39747;stroke-width:1.5px;fill:#f7f7f7"/>
                <path data-name="패스 1238" d="M82.836 412.747a5.547 5.547 0 0 0 1.638 3.948l.878.882 4.67 4.314 7.717-7.717-5.37-5.374a5.586 5.586 0 0 0-9.533 3.947z" transform="translate(-74.173 -364.584)" style="stroke-linecap:round;stroke-linejoin:round;stroke:#f39747;stroke-width:1.5px;fill:#f7f7f7"/>
                <path data-name="패스 1239" d="m151.554 481.926 7.308 6.745a5.588 5.588 0 0 0 5.586-1.389 5.689 5.689 0 0 0 .925-1.22 5.586 5.586 0 0 0-.925-6.679l-5.177-5.173z" transform="translate(-135.705 -424.619)" style="stroke:#f39747;stroke-width:1.5px;fill:#f7f7f7"/>
                <path data-name="패스 1240" d="m151.554 481.926 7.308 6.745a5.588 5.588 0 0 0 5.586-1.389 5.689 5.689 0 0 0 .925-1.22 5.586 5.586 0 0 0-.925-6.679l-5.177-5.173z" transform="translate(-135.705 -424.619)" style="stroke-linecap:round;stroke-linejoin:round;stroke:#f39747;stroke-width:1.5px;fill:#f7f7f7"/>
            </g>
        </g>
    </g>
</svg>
