<svg xmlns="http://www.w3.org/2000/svg" width="89" height="89" viewBox="0 0 89 89">
    <defs>
        <clipPath id="mtge2hqpxa">
            <path data-name="사각형 741" transform="translate(1066 2382)" style="fill:#fff;stroke:#707070" d="M0 0h89v89H0z"/>
        </clipPath>
    </defs>
    <g data-name="마스크 그룹 70" transform="translate(-1066 -2382)" style="clip-path:url(#mtge2hqpxa)">
        <g data-name="그룹 1163">
            <path data-name="패스 1546" d="M138.891 240.152h3.883a1.007 1.007 0 0 1 .956.713 20.374 20.374 0 0 0 1.33 3.21 1.007 1.007 0 0 1-.172 1.18L142.142 248a1.881 1.881 0 0 0 0 2.66l5.124 5.124a1.881 1.881 0 0 0 2.66 0l2.746-2.746a1.007 1.007 0 0 1 1.18-.172 20.381 20.381 0 0 0 3.21 1.33 1.007 1.007 0 0 1 .713.956v3.883a1.881 1.881 0 0 0 1.881 1.881h7.244a1.881 1.881 0 0 0 1.881-1.881v-3.883a1.007 1.007 0 0 1 .713-.956 20.376 20.376 0 0 0 3.21-1.33 1.007 1.007 0 0 1 1.18.172l2.746 2.746a1.881 1.881 0 0 0 2.66 0l5.124-5.124a1.881 1.881 0 0 0 0-2.66l-2.746-2.746a1.007 1.007 0 0 1-.172-1.18 20.378 20.378 0 0 0 1.33-3.21 1.007 1.007 0 0 1 .956-.713h3.883a1.881 1.881 0 0 0 1.881-1.881v-7.246a1.881 1.881 0 0 0-1.881-1.881h-3.883a1.007 1.007 0 0 1-.956-.713 20.372 20.372 0 0 0-1.33-3.21 1.007 1.007 0 0 1 .172-1.18l2.746-2.746a1.881 1.881 0 0 0 0-2.66l-5.124-5.124a1.881 1.881 0 0 0-2.66 0l-2.746 2.746a1.007 1.007 0 0 1-1.18.172 20.372 20.372 0 0 0-3.21-1.33 1.007 1.007 0 0 1-.713-.956v-3.883a1.881 1.881 0 0 0-1.881-1.881h-7.246a1.881 1.881 0 0 0-1.881 1.881v3.883a1.007 1.007 0 0 1-.713.956 20.366 20.366 0 0 0-3.21 1.33 1.007 1.007 0 0 1-1.18-.172l-2.746-2.746a1.881 1.881 0 0 0-2.66 0l-5.124 5.124a1.881 1.881 0 0 0 0 2.66l2.746 2.746a1.007 1.007 0 0 1 .172 1.18 20.371 20.371 0 0 0-1.33 3.21 1.007 1.007 0 0 1-.956.713h-3.883a1.881 1.881 0 0 0-1.881 1.881v7.246a1.881 1.881 0 0 0 1.883 1.882z" transform="translate(947.211 2191.899)" style="fill:none;stroke:#ff7f00;stroke-miterlimit:10;stroke-width:1.5px"/>
            <path data-name="패스 1547" d="m265.914 1103.554-1.145-9.244a1.264 1.264 0 0 1 .577-1.174l8.158-4.5" transform="translate(825.501 1363.647)" style="fill:none;stroke:#ff7f00;stroke-miterlimit:10;stroke-width:1.5px"/>
            <path data-name="패스 1548" d="M319.2 332.312a36.387 36.387 0 0 1-49.93 51.055" transform="translate(821.263 2073.78)" style="fill:none;stroke:#ff7f00;stroke-miterlimit:10;stroke-width:1.5px"/>
            <path data-name="패스 1549" d="m776.9.059 1.16 9.37a1.11 1.11 0 0 1-.566 1.111l-8.269 4.56" transform="translate(351.848 2385.741)" style="fill:none;stroke:#ff7f00;stroke-miterlimit:10;stroke-width:1.5px"/>
            <path data-name="패스 1550" d="M6.8 131.428A36.387 36.387 0 0 1 56.113 80.06" transform="translate(1073.623 2315.782)" style="fill:none;stroke:#ff7f00;stroke-miterlimit:10;stroke-width:1.5px"/>
            <path data-name="패스 1551" d="M362.456 491.283a1.527 1.527 0 0 1 0 2.027l-13.543 15.264a1.527 1.527 0 0 1-2.279 0L333.1 493.391a1.527 1.527 0 0 1 0-2.027l6.437-7.29a1.527 1.527 0 0 1 1.145-.516h14.207a1.527 1.527 0 0 1 1.14.511z" transform="translate(762.709 1932.473)" style="fill:none;stroke:#ff7f00;stroke-miterlimit:10;stroke-width:1.5px"/>
            <path data-name="패스 1552" d="m496.569 636.508-6.406 16.725-6.42-16.712" transform="translate(620.325 1788.278)" style="fill:none;stroke:#ff7f00;stroke-miterlimit:10;stroke-width:1.5px"/>
            <path data-name="선 259" transform="translate(1104.068 2416.031)" style="fill:none;stroke:#ff7f00;stroke-miterlimit:10;stroke-width:1.5px" d="M3.319 0 0 8.768"/>
            <path data-name="선 260" transform="translate(1113.588 2416.031)" style="fill:none;stroke:#ff7f00;stroke-miterlimit:10;stroke-width:1.5px" d="M3.305 8.755 0 0"/>
            <path data-name="선 261" transform="translate(1095.478 2424.799)" style="fill:none;stroke:#ff7f00;stroke-miterlimit:10;stroke-width:1.5px" d="M0 0h30.072"/>
        </g>
    </g>
</svg>
