<svg xmlns="http://www.w3.org/2000/svg" width="89" height="89" viewBox="0 0 89 89">
    <defs>
        <clipPath id="5gn018bf1a">
            <path data-name="사각형 1108" transform="translate(1066 2382)" style="fill:#fff;stroke:#707070" d="M0 0h89v89H0z"/>
        </clipPath>
        <clipPath id="1zi5lgn7tb">
            <path data-name="사각형 1106" transform="translate(-.321 -.321)" style="fill:none;stroke:#ff7f00" d="M0 0h62v62H0z"/>
        </clipPath>
    </defs>
    <g data-name="마스크 그룹 161" transform="translate(-1066 -2382)" style="clip-path:url(#5gn018bf1a)">
        <g data-name="그룹 1439">
            <g data-name="그룹 1436">
                <g data-name="그룹 1435" style="clip-path:url(#1zi5lgn7tb)" transform="translate(1080.32 2396.321)">
                    <path data-name="사각형 1105" transform="translate(2.679 32.679)" style="stroke-linecap:round;stroke-linejoin:round;stroke-width:2px;fill:none;stroke:#ff7f00" d="M0 0h26v26H0z"/>
                </g>
            </g>
            <path data-name="선 317" transform="translate(1109.33 2411.665)" style="stroke-linecap:round;stroke-linejoin:round;stroke-width:2px;fill:none;stroke:#ff7f00" d="M0 17.475 17.473 0"/>
            <path data-name="패스 1853" d="M14 6h10.38v10.38" transform="translate(1102.423 2405.663)" style="stroke-linecap:round;stroke-linejoin:round;stroke-width:2px;fill:none;stroke:#ff7f00"/>
            <g data-name="그룹 1438">
                <g data-name="그룹 1437" style="clip-path:url(#1zi5lgn7tb)" transform="translate(1080.32 2396.321)">
                    <path data-name="패스 1854" d="M1 8.785V1h7.785" transform="translate(1.367 1.367)" style="stroke-linecap:round;stroke-linejoin:round;stroke-width:2px;fill:none;stroke:#ff7f00"/>
                    <path data-name="패스 1855" d="M20 1h7.785v7.785" transform="translate(31.673 1.367)" style="stroke-linecap:round;stroke-linejoin:round;stroke-width:2px;fill:none;stroke:#ff7f00"/>
                    <path data-name="선 318" transform="translate(18.679 2.679)" style="stroke-linecap:round;stroke-linejoin:round;stroke-width:2px;fill:none;stroke:#ff7f00" d="M0 0h7"/>
                    <path data-name="선 319" transform="translate(2.679 18.679)" style="stroke-linecap:round;stroke-linejoin:round;stroke-width:2px;fill:none;stroke:#ff7f00" d="M0 0v7"/>
                    <path data-name="선 320" transform="translate(35.679 2.679)" style="stroke-linecap:round;stroke-linejoin:round;stroke-width:2px;fill:none;stroke:#ff7f00" d="M0 0h8"/>
                    <path data-name="선 321" transform="translate(35.679 58.679)" style="stroke-linecap:round;stroke-linejoin:round;stroke-width:2px;fill:none;stroke:#ff7f00" d="M0 0h8"/>
                    <path data-name="패스 1856" d="M27.785 20v7.785H20" transform="translate(31.673 31.673)" style="stroke-linecap:round;stroke-linejoin:round;stroke-width:2px;fill:none;stroke:#ff7f00"/>
                    <path data-name="선 322" transform="translate(58.679 18.679)" style="stroke-linecap:round;stroke-linejoin:round;stroke-width:2px;fill:none;stroke:#ff7f00" d="M0 0v7"/>
                    <path data-name="선 323" transform="translate(58.679 35.679)" style="stroke-linecap:round;stroke-linejoin:round;stroke-width:2px;fill:none;stroke:#ff7f00" d="M0 0v8"/>
                </g>
            </g>
        </g>
    </g>
</svg>
