<svg xmlns="http://www.w3.org/2000/svg" width="33" height="29" viewBox="0 0 33 29">
    <defs>
        <clipPath id="omxp1sayxa">
            <path data-name="사각형 99" transform="translate(1649 173)" style="fill:red;opacity:.363" d="M0 0h33v29H0z"/>
        </clipPath>
    </defs>
    <g data-name="마스크 그룹 23" transform="translate(-1649 -173)" style="clip-path:url(#omxp1sayxa)">
        <g data-name="그룹 134">
            <path data-name="패스 170" d="M16.3 24.36h-.022a69.452 69.452 0 0 1-11.369-.665 5.111 5.111 0 0 1-3.384-2.689C1.472 20.888.25 18.049.25 12.3s1.222-8.579 1.274-8.7A5.122 5.122 0 0 1 4.907.915 69.505 69.505 0 0 1 16.277.25h.023a69.569 69.569 0 0 1 11.37.664A5.118 5.118 0 0 1 31.05 3.6c.052.118 1.277 2.958 1.277 8.7s-1.225 8.583-1.278 8.7a5.107 5.107 0 0 1-3.38 2.688 69.5 69.5 0 0 1-11.369.672zm-.023-22.61a69.888 69.888 0 0 0-11.094.639A3.631 3.631 0 0 0 2.9 4.208c-.01.024-1.146 2.708-1.146 8.1S2.886 20.376 2.9 20.4a3.621 3.621 0 0 0 2.283 1.82 69.825 69.825 0 0 0 11.093.64h.024a69.869 69.869 0 0 0 11.1-.64 3.618 3.618 0 0 0 2.277-1.82c.011-.025 1.15-2.708 1.15-8.1s-1.139-8.072-1.151-8.1a3.628 3.628 0 0 0-2.285-1.818A69.965 69.965 0 0 0 16.3 1.75z" transform="translate(1649.665 177.725)" style="fill:#fff"/>
            <path data-name="패스 171" d="M18.98 21.39a.75.75 0 0 1-.75-.75V10a.75.75 0 0 1 1.122-.651l9.31 5.32a.75.75 0 0 1 0 1.3l-9.31 5.32a.75.75 0 0 1-.372.101zm.75-10.1v8.055l7.048-4.028z" transform="translate(1643.642 174.711)" style="fill:#fff"/>
        </g>
    </g>
</svg>
