<svg xmlns="http://www.w3.org/2000/svg" xmlns:xlink="http://www.w3.org/1999/xlink" width="89" height="89" viewBox="0 0 89 89">
  <defs>
    <style>
      .cls-1 {
        fill: #fff;
        stroke: #707070;
      }

      .cls-2 {
        clip-path: url(#clip-path);
      }

      .cls-3 {
        fill: none;
        stroke: #ff6f0f;
        stroke-linecap: round;
        stroke-linejoin: round;
        stroke-width: 1.5px;
      }
    </style>
    <clipPath id="clip-path">
      <rect id="사각형_744" data-name="사각형 744" class="cls-1" width="89" height="89" transform="translate(1066 2382)"/>
    </clipPath>
  </defs>
  <g id="마스크_그룹_71" data-name="마스크 그룹 71" class="cls-2" transform="translate(-1066 -2382)">
    <g id="그룹_1164" data-name="그룹 1164" transform="translate(-615.024 54.93)">
      <path id="패스_1553" data-name="패스 1553" class="cls-3" d="M56.758,35.081a24.886,24.886,0,0,0,1.033-7.534,27.048,27.048,0,0,0-54.1,0,23.81,23.81,0,0,0,1.36,8.582" transform="translate(1695.281 2335)"/>
      <path id="패스_1554" data-name="패스 1554" class="cls-3" d="M48.79,36.528a32.588,32.588,0,0,0,1.225-8.9C50.016,15.361,43.321,4.9,33.922.849,24.523,4.9,17.829,15.361,17.829,27.626A28.757,28.757,0,0,0,19.44,37.78" transform="translate(1692.103 2334.921)"/>
      <line id="선_262" data-name="선 262" class="cls-3" y2="50.886" transform="translate(1726.025 2335.77)"/>
      <line id="선_263" data-name="선 263" class="cls-3" x2="53.553" transform="translate(1699.248 2362.547)"/>
      <path id="패스_1555" data-name="패스 1555" class="cls-3" d="M29.376,62.682a19.217,19.217,0,0,0-5.55-9.258A23.779,23.779,0,0,0,1.211,47.168,23.8,23.8,0,0,0,30.082,76.038" transform="translate(1696 2324.664)"/>
      <ellipse id="타원_104" data-name="타원 104" class="cls-3" cx="20.414" cy="11.567" rx="20.414" ry="11.567" transform="translate(1717.789 2392.523) rotate(-45)"/>
      <path id="패스_1556" data-name="패스 1556" class="cls-3" d="M12.06,57.722,32.625,78.287,53.19,57.722" transform="translate(1693.4 2322.13)"/>
    </g>
  </g>
</svg>
